<svg width="657" height="154" viewBox="0 0 657 154" fill="none" xmlns="http://www.w3.org/2000/svg">
<path d="M3.50058 121.107V27.3014C4.43396 19.3676 10.0809 3.50006 25.2018 3.50006C40.3226 3.50006 45.9696 19.3676 46.903 27.3014V59.5032C47.1363 60.6699 49.0031 63.7034 54.6034 66.5035C84.005 82.6044 70.7043 121.107 67.2041 133.707C64.4039 143.788 50.6365 149.108 44.1028 150.508C39.6692 149.108 28.0019 145.188 16.8013 140.708C5.60069 136.227 3.26723 125.773 3.50058 121.107Z" fill="white"/>
<path d="M105.857 102.114C105.857 75.3365 85.2833 53.4946 59.8166 53.0181L65.2622 49.4614C67.0575 48.2872 67.568 45.8792 66.3938 44.0754C65.2281 42.2715 62.8201 41.761 61.0248 42.9352L51.01 49.4699V25.5773C51.027 11.4783 39.5827 0 25.5093 0C11.4358 0 0 11.4783 0 25.5858V120.722C0 129.878 4.34797 136.982 13.6736 143.075C14.7457 143.772 15.9114 144.377 17.1622 144.87C17.1792 144.87 17.1877 144.879 17.2047 144.887L39.2849 153.362C39.6508 153.524 40.34 153.728 40.6378 153.762C42.1439 153.932 43.6414 154 45.1304 154C50.4484 154 55.6047 153.013 60.4462 151.184C85.6236 150.358 105.857 128.661 105.857 102.105V102.114ZM65.7387 139.748C66.062 139.373 66.3768 138.999 66.6916 138.608C73.7794 129.827 77.6764 118.195 77.6764 105.866C77.6764 93.5368 73.7709 81.9053 66.6916 73.1243C64.4113 70.2994 61.8927 67.8744 59.1954 65.8748C76.0002 71.9671 86.4745 88.3549 84.492 107.432C83.054 121.241 75.8045 132.915 65.7387 139.739V139.748ZM17.9109 136.566C8.91718 130.686 7.75999 125.011 7.75999 120.731V25.5858C7.75999 15.7667 15.7242 7.777 25.5178 7.777C35.3113 7.777 43.2755 15.7667 43.2755 25.5858V54.5411L30.4103 62.9393C28.6149 64.1135 28.1044 66.5215 29.2786 68.3253C30.0189 69.474 31.2612 70.0951 32.5375 70.0951C33.2607 70.0951 33.9925 69.8909 34.6477 69.4655L38.6212 66.8703C38.8255 66.9044 39.0382 66.9299 39.2509 66.9299C56.1748 66.9299 69.942 84.3984 69.942 105.883C69.942 127.368 56.1748 144.828 39.2509 144.828C39.0977 144.828 38.9446 144.836 38.7914 144.853L20.0126 137.646C19.2553 137.348 18.5576 136.982 17.9279 136.574L17.9109 136.566ZM80.5524 136.574C86.8319 128.891 91.0777 119.14 92.2094 108.248C93.5878 95.0003 89.861 82.3307 81.7266 72.5797C78.3316 68.504 74.2985 65.0835 69.8143 62.4032C86.1341 67.3808 98.106 83.3007 98.106 102.114C98.106 116.485 91.1203 129.163 80.5524 136.566V136.574Z" fill="#111111"/>
<path d="M65.7389 139.748C66.0622 139.374 66.377 138.999 66.6918 138.608C73.7796 129.827 77.6766 118.196 77.6766 105.866C77.6766 93.5371 73.7711 81.9057 66.6918 73.1246C64.4115 70.2997 61.8929 67.8747 59.1956 65.8752C76.0004 71.9674 86.4747 88.3553 84.4922 107.432C83.0542 121.242 75.8047 132.916 65.7389 139.74V139.748ZM80.5526 136.574C86.8321 128.891 91.0779 119.14 92.2096 108.249C93.588 95.0006 89.8612 82.3311 81.7268 72.5801C78.3318 68.5044 74.2987 65.0839 69.8146 62.4036C86.1343 67.3812 98.1062 83.3011 98.1062 102.114C98.1062 116.485 91.1205 129.163 80.5526 136.566V136.574Z" fill="#FFE000"/>
<path d="M34.0169 82.7391L33.8042 82.6455C29.159 80.493 23.8671 83.8961 23.8671 89.0263V117.272C23.8671 118.029 23.9947 118.761 24.2159 119.459L40.3212 113.291L30.4862 124.819C37.8284 127.941 46.0385 122.547 46.0385 114.473V101.584C46.0385 93.4844 41.3422 86.1252 34.0169 82.7306V82.7391Z" fill="#111111"/>
<path d="M167.28 132.241V139.568C155.277 139.568 145.554 129.845 145.554 117.842V37.0267H167.28V75.3625C171.551 69.6214 178.392 66.3342 187.79 66.3342C208.301 66.3342 222.584 82.0875 222.584 103.813C222.584 125.539 208.301 141.293 187.79 141.293C178.392 141.293 171.551 137.994 167.28 132.253V132.241ZM204.863 103.802C204.863 92.8173 198.266 84.877 187.895 84.877C177.524 84.877 170.44 92.8057 170.44 103.802C170.44 114.798 177.281 122.727 187.895 122.727C198.509 122.727 204.863 114.786 204.863 103.802Z" fill="#111111"/>
<path d="M231.6 103.802C231.6 82.0758 245.883 66.3224 266.394 66.3224C275.793 66.3224 282.633 69.6213 286.904 75.3508V68.0239H308.63V117.83C308.63 129.833 298.908 139.556 286.904 139.556V132.229C282.633 137.971 275.793 141.269 266.394 141.269C245.883 141.269 231.6 125.516 231.6 103.79V103.802ZM283.744 103.802C283.744 92.8172 276.904 84.8769 266.29 84.8769C255.676 84.8769 249.321 92.8056 249.321 103.802C249.321 114.798 255.919 122.727 266.29 122.727C276.661 122.727 283.744 114.786 283.744 103.802Z" fill="#111111"/>
<path d="M324.987 68.0356H346.713V75.3625C350.984 69.6214 357.582 66.3341 366.737 66.3341C383.335 66.3341 394.69 78.4182 394.69 98.1996V139.58H372.964V101.857C372.964 90.9885 368.566 85.0159 360.394 85.0159C352.222 85.0159 346.724 91.7293 346.724 102.841V139.591H324.998V68.0588L324.987 68.0356Z" fill="#111111"/>
<path d="M405.674 103.802C405.674 82.0758 419.958 66.3224 440.468 66.3224C449.867 66.3224 456.708 69.6213 460.979 75.3508V68.0239H482.705V117.83C482.705 129.833 472.982 139.556 460.979 139.556V132.229C456.708 137.971 449.867 141.269 440.468 141.269C419.958 141.269 405.674 125.516 405.674 103.79V103.802ZM457.807 103.802C457.807 92.8172 450.967 84.8769 440.353 84.8769C429.738 84.8769 423.384 92.8056 423.384 103.802C423.384 114.798 429.982 122.727 440.353 122.727C450.724 122.727 457.807 114.786 457.807 103.802Z" fill="#111111"/>
<path d="M499.049 68.0356H520.775V75.3625C525.046 69.6214 531.643 66.3341 540.799 66.3341C557.397 66.3341 568.752 78.4182 568.752 98.1996V139.58H547.026V101.857C547.026 90.9885 542.628 85.0159 534.456 85.0159C526.284 85.0159 520.786 91.7293 520.786 102.841V139.591H499.06V68.0588L499.049 68.0356Z" fill="#111111"/>
<path d="M579.736 103.802C579.736 82.0758 594.02 66.3224 614.53 66.3224C623.929 66.3224 630.77 69.6213 635.041 75.3508V68.0239H656.767V117.83C656.767 129.833 647.044 139.556 635.041 139.556V132.229C630.77 137.971 623.929 141.269 614.53 141.269C594.02 141.269 579.736 125.516 579.736 103.79V103.802ZM631.881 103.802C631.881 92.8172 625.04 84.8769 614.426 84.8769C603.812 84.8769 597.457 92.8056 597.457 103.802C597.457 114.798 604.055 122.727 614.426 122.727C624.797 122.727 631.881 114.786 631.881 103.802Z" fill="#111111"/>
<path d="M516.259 25.7521H509.847C509.627 24.4094 508.099 23.5876 506.155 23.5876C504.21 23.5876 502.694 24.2936 502.694 25.2659C502.694 26.3424 504.152 26.8632 507.879 27.4651C514.326 28.4374 516.641 30.5556 516.641 34.329C516.641 38.7969 511.942 41.5632 506.386 41.5632C500.83 41.5632 496.362 38.7274 496.131 34.1438H502.543C502.763 35.5559 504.407 36.4935 506.49 36.4935C508.574 36.4935 510.183 35.7064 510.183 34.6994C510.183 33.6924 508.69 32.9863 504.928 32.4307C499.707 31.6436 496.281 30.0463 496.281 25.6132C496.281 21.18 500.714 18.6798 506.27 18.6798C511.826 18.6798 515.993 21.4346 516.259 25.7636V25.7521Z" fill="#111111"/>
<path d="M533.703 24.8957H529.374V41.031H522.741V24.8957H518.412V19.1893H522.741V12.7074H529.374V19.1893H533.703V24.8957Z" fill="#111111"/>
<path d="M558.381 30.1156C558.381 36.748 553.531 41.5631 546.783 41.5631C540.035 41.5631 535.185 36.7596 535.185 30.1156C535.185 23.4717 540.035 18.6681 546.783 18.6681C553.531 18.6681 558.381 23.4717 558.381 30.1156ZM541.609 30.1156C541.609 33.4723 543.657 35.8914 546.794 35.8914C549.931 35.8914 551.98 33.4723 551.98 30.1156C551.98 26.7589 549.931 24.3398 546.794 24.3398C543.657 24.3398 541.609 26.7589 541.609 30.1156Z" fill="#111111"/>
<path d="M562.257 19.189H568.89V21.4229C570.198 19.6751 572.212 18.6681 575.001 18.6681C576.228 18.6681 577.015 18.7376 577.872 19.0385L577.941 25.2658C577.004 24.7796 575.858 24.525 574.55 24.525C571.008 24.525 568.89 26.539 568.89 29.861V41.0422H562.257V19.2006V19.189Z" fill="#111111"/>
<path d="M579.215 30.1156C579.215 23.4832 583.579 18.6681 589.841 18.6681C592.711 18.6681 594.795 19.6751 596.103 21.4229V19.189H602.735V41.0307H596.103V38.7967C594.795 40.5445 592.711 41.5515 589.841 41.5515C583.579 41.5515 579.215 36.748 579.215 30.104V30.1156ZM596.207 30.1156C596.207 26.7589 594.123 24.3398 590.871 24.3398C587.618 24.3398 585.685 26.7589 585.685 30.1156C585.685 33.4723 587.699 35.8914 590.871 35.8914C594.042 35.8914 596.207 33.4723 596.207 30.1156Z" fill="#111111"/>
<path d="M608.105 42.7553H614.819C615.154 44.1674 616.416 45.0703 618.881 45.0703C621.636 45.0703 623.5 43.2762 623.5 40.5561V38.2411C622.192 39.9889 620.108 40.9959 617.238 40.9959C610.976 40.9959 606.612 36.3313 606.612 29.9304C606.612 23.5295 610.976 18.6681 617.238 18.6681C620.108 18.6681 622.192 19.6751 623.5 21.4229V19.189H630.132V40.6255C630.132 46.5518 625.398 50.6493 618.87 50.6493C612.342 50.6493 608.811 46.957 608.094 42.7437L608.105 42.7553ZM623.604 29.9304C623.604 26.6895 621.52 24.3398 618.268 24.3398C615.015 24.3398 613.082 26.6895 613.082 29.9304C613.082 33.1714 615.096 35.521 618.268 35.521C621.439 35.521 623.604 33.1714 623.604 29.9304Z" fill="#111111"/>
<path d="M633.997 30.1156C633.997 23.4832 638.697 18.6681 645.364 18.6681C652.031 18.6681 656.73 23.4369 656.73 30.1156C656.73 30.7522 656.696 31.4583 656.58 32.2454H640.583C641.104 34.7803 642.864 36.2387 645.352 36.2387C647.25 36.2387 648.825 35.5673 649.38 34.5256H656.047C654.925 38.7041 650.642 41.5747 645.352 41.5747C638.685 41.5747 633.986 36.8059 633.986 30.1272L633.997 30.1156ZM650.26 27.9511C649.704 25.3468 647.991 23.9231 645.375 23.9231C642.759 23.9231 641.127 25.3352 640.572 27.9511H650.26Z" fill="#111111"/>
</svg>
