<svg width="286" height="85" viewBox="0 0 286 85" fill="none" xmlns="http://www.w3.org/2000/svg">
<path d="M58.2801 56.2899C58.2801 41.5799 46.9801 29.5799 32.9901 29.3199L35.9801 27.3699C36.9701 26.7299 37.2501 25.3999 36.6001 24.4099C35.9601 23.4199 34.6401 23.1399 33.6501 23.7799L28.1501 27.3699V14.2499C28.1501 6.49994 21.8601 0.189941 14.1301 0.189941C6.40011 0.189941 0.110107 6.49994 0.110107 14.2499V66.5199C0.110107 71.5499 2.5001 75.4499 7.6201 78.7999C8.2101 79.1799 8.85011 79.5199 9.53011 79.7899H9.55011L21.6801 84.45C21.8801 84.54 22.2601 84.65 22.4201 84.67C23.2501 84.76 24.0701 84.7999 24.8901 84.7999C27.8101 84.7999 30.6501 84.2599 33.3101 83.2499C47.1401 82.7999 58.2601 70.8799 58.2601 56.2899H58.2801ZM36.2401 76.9699C36.4201 76.7699 36.5901 76.5599 36.7601 76.3399C40.6501 71.5199 42.8001 65.1299 42.8001 58.3499C42.8001 51.5699 40.6601 45.1899 36.7601 40.3599C35.5101 38.8099 34.1301 37.4799 32.6401 36.3799C41.8701 39.7299 47.6301 48.7299 46.5401 59.2099C45.7501 66.7999 41.7701 73.2099 36.2401 76.9599V76.9699ZM9.96011 75.2199C5.02011 71.9899 4.38011 68.8699 4.38011 66.5199V14.2499C4.38011 8.85994 8.76011 4.46994 14.1301 4.46994C19.5001 4.46994 23.8801 8.85994 23.8801 14.2499V30.1599L16.8101 34.7699C15.8201 35.4099 15.5401 36.7399 16.1901 37.7299C16.6001 38.3599 17.2801 38.7 17.9801 38.7C18.3801 38.7 18.7801 38.5899 19.1401 38.3499L21.3201 36.92C21.4301 36.94 21.5501 36.95 21.6601 36.95C30.9601 36.95 38.5201 46.5499 38.5201 58.3499C38.5201 70.1499 30.9601 79.7499 21.6601 79.7499C21.5701 79.7499 21.4901 79.7499 21.4101 79.7699L11.0901 75.8099C10.6701 75.6399 10.2901 75.4499 9.94011 75.2199H9.96011ZM44.3701 75.2199C47.8201 70.9999 50.1501 65.6399 50.7701 59.6599C51.5301 52.3799 49.4801 45.4199 45.0101 40.0599C43.1401 37.8199 40.9301 35.9399 38.4601 34.4699C47.4301 37.1999 54.0101 45.9499 54.0101 56.2899C54.0101 64.1799 50.1701 71.1499 44.3701 75.2199Z" fill="white"/>
<path d="M36.2399 76.97C36.4199 76.77 36.5899 76.56 36.7599 76.34C40.6499 71.52 42.7999 65.13 42.7999 58.35C42.7999 51.57 40.6599 45.19 36.7599 40.36C35.5099 38.81 34.1299 37.48 32.6399 36.38C41.8699 39.73 47.6299 48.73 46.5399 59.21C45.7499 66.8 41.7699 73.21 36.2399 76.96V76.97ZM44.3699 75.22C47.8199 71 50.1499 65.64 50.7699 59.66C51.5299 52.38 49.4799 45.42 45.0099 40.06C43.1399 37.82 40.9299 35.94 38.4599 34.47C47.4299 37.2 54.0099 45.95 54.0099 56.29C54.0099 64.18 50.1699 71.15 44.3699 75.22Z" fill="#FFE400"/>
<path d="M18.81 45.6501L18.69 45.6001C16.14 44.4201 13.23 46.2901 13.23 49.1101V64.6301C13.23 65.0401 13.3 65.4501 13.42 65.8301L22.27 62.4401L16.87 68.7801C20.9 70.4901 25.42 67.5301 25.42 63.1001V56.0201C25.42 51.5701 22.84 47.5301 18.81 45.6601V45.6501Z" fill="white"/>
<path d="M88.1899 70.6V73.56C83.3399 73.56 79.4099 69.63 79.4099 64.78V32.14H88.1899V47.62C89.9199 45.3 92.6799 43.97 96.4699 43.97C104.75 43.97 110.52 50.33 110.52 59.11C110.52 67.89 104.75 74.25 96.4699 74.25C92.6699 74.25 89.9099 72.92 88.1899 70.6ZM103.37 59.12C103.37 54.68 100.71 51.48 96.5199 51.48C92.3299 51.48 89.4699 54.68 89.4699 59.12C89.4699 63.56 92.2299 66.76 96.5199 66.76C100.81 66.76 103.37 63.56 103.37 59.12Z" fill="white"/>
<path d="M114.17 59.12C114.17 50.34 119.94 43.98 128.22 43.98C132.02 43.98 134.78 45.31 136.5 47.63V44.67H145.28V64.79C145.28 69.64 141.35 73.57 136.5 73.57V70.61C134.77 72.93 132.01 74.26 128.22 74.26C119.94 74.26 114.17 67.9 114.17 59.12ZM135.23 59.12C135.23 54.68 132.47 51.48 128.18 51.48C123.89 51.48 121.33 54.68 121.33 59.12C121.33 63.56 123.99 66.76 128.18 66.76C132.37 66.76 135.23 63.56 135.23 59.12Z" fill="white"/>
<path d="M151.89 44.67H160.67V47.63C162.4 45.31 165.06 43.98 168.76 43.98C175.46 43.98 180.05 48.86 180.05 56.85V73.56H171.27V58.33C171.27 53.94 169.5 51.53 166.19 51.53C162.88 51.53 160.67 54.24 160.67 58.73V73.57H151.89V44.68V44.67Z" fill="white"/>
<path d="M184.47 59.12C184.47 50.34 190.24 43.98 198.52 43.98C202.32 43.98 205.08 45.31 206.8 47.63V44.67H215.58V64.79C215.58 69.64 211.65 73.57 206.8 73.57V70.61C205.07 72.93 202.31 74.26 198.52 74.26C190.24 74.26 184.47 67.9 184.47 59.12ZM205.53 59.12C205.53 54.68 202.77 51.48 198.48 51.48C194.19 51.48 191.63 54.68 191.63 59.12C191.63 63.56 194.29 66.76 198.48 66.76C202.67 66.76 205.53 63.56 205.53 59.12Z" fill="white"/>
<path d="M222.19 44.67H230.97V47.63C232.7 45.31 235.36 43.98 239.06 43.98C245.76 43.98 250.35 48.86 250.35 56.85V73.56H241.57V58.33C241.57 53.94 239.8 51.53 236.49 51.53C233.18 51.53 230.97 54.24 230.97 58.73V73.57H222.19V44.68V44.67Z" fill="white"/>
<path d="M254.77 59.12C254.77 50.34 260.54 43.98 268.82 43.98C272.62 43.98 275.38 45.31 277.1 47.63V44.67H285.88V64.79C285.88 69.64 281.95 73.57 277.1 73.57V70.61C275.37 72.93 272.61 74.26 268.82 74.26C260.54 74.26 254.77 67.9 254.77 59.12ZM275.83 59.12C275.83 54.68 273.07 51.48 268.78 51.48C264.49 51.48 261.93 54.68 261.93 59.12C261.93 63.56 264.59 66.76 268.78 66.76C272.97 66.76 275.83 63.56 275.83 59.12Z" fill="white"/>
<path d="M229.13 27.6H226.54C226.45 27.06 225.83 26.73 225.05 26.73C224.27 26.73 223.65 27.02 223.65 27.41C223.65 27.85 224.24 28.06 225.74 28.3C228.34 28.69 229.28 29.55 229.28 31.07C229.28 32.88 227.38 33.99 225.14 33.99C222.9 33.99 221.09 32.85 221 30.99H223.59C223.68 31.56 224.34 31.94 225.19 31.94C226.04 31.94 226.68 31.62 226.68 31.22C226.68 30.82 226.08 30.53 224.56 30.3C222.45 29.98 221.07 29.34 221.07 27.54C221.07 25.74 222.86 24.74 225.1 24.74C227.34 24.74 229.03 25.85 229.13 27.6Z" fill="white"/>
<path d="M236.18 27.25H234.43V33.77H231.75V27.25H230V24.95H231.75V22.33H234.43V24.95H236.18V27.25Z" fill="white"/>
<path d="M246.15 29.36C246.15 32.04 244.19 33.98 241.47 33.98C238.75 33.98 236.79 32.04 236.79 29.36C236.79 26.68 238.75 24.74 241.47 24.74C244.19 24.74 246.15 26.68 246.15 29.36ZM239.37 29.36C239.37 30.71 240.2 31.69 241.46 31.69C242.72 31.69 243.55 30.71 243.55 29.36C243.55 28.01 242.72 27.03 241.46 27.03C240.2 27.03 239.37 28.01 239.37 29.36Z" fill="white"/>
<path d="M247.71 24.95H250.39V25.85C250.92 25.14 251.73 24.74 252.86 24.74C253.36 24.74 253.67 24.77 254.02 24.89L254.05 27.4C253.67 27.2 253.21 27.1 252.68 27.1C251.25 27.1 250.39 27.91 250.39 29.25V33.77H247.71V24.95Z" fill="white"/>
<path d="M254.56 29.36C254.56 26.68 256.32 24.74 258.85 24.74C260.01 24.74 260.85 25.15 261.38 25.85V24.95H264.06V33.77H261.38V32.87C260.85 33.58 260.01 33.98 258.85 33.98C256.32 33.98 254.56 32.04 254.56 29.36ZM261.42 29.36C261.42 28 260.58 27.03 259.27 27.03C257.96 27.03 257.18 28.01 257.18 29.36C257.18 30.71 257.99 31.69 259.27 31.69C260.55 31.69 261.42 30.71 261.42 29.36Z" fill="white"/>
<path d="M266.23 34.46H268.94C269.08 35.03 269.59 35.39 270.58 35.39C271.69 35.39 272.45 34.67 272.45 33.57V32.64C271.92 33.35 271.08 33.75 269.92 33.75C267.39 33.75 265.63 31.87 265.63 29.28C265.63 26.69 267.39 24.73 269.92 24.73C271.08 24.73 271.92 25.14 272.45 25.84V24.94H275.13V33.6C275.13 35.99 273.22 37.65 270.58 37.65C267.94 37.65 266.52 36.16 266.23 34.46ZM272.49 29.28C272.49 27.97 271.65 27.02 270.34 27.02C269.03 27.02 268.25 27.97 268.25 29.28C268.25 30.59 269.06 31.54 270.34 31.54C271.62 31.54 272.49 30.59 272.49 29.28Z" fill="white"/>
<path d="M276.69 29.36C276.69 26.68 278.59 24.74 281.28 24.74C283.97 24.74 285.87 26.67 285.87 29.36C285.87 29.62 285.85 29.9 285.81 30.22H279.35C279.56 31.24 280.27 31.83 281.28 31.83C282.05 31.83 282.68 31.56 282.91 31.14H285.6C285.15 32.83 283.42 33.99 281.28 33.99C278.59 33.99 276.69 32.06 276.69 29.37V29.36ZM283.25 28.49C283.02 27.44 282.33 26.86 281.28 26.86C280.23 26.86 279.56 27.43 279.34 28.49H283.25Z" fill="white"/>
</svg>
