<svg width="579" height="843" viewBox="0 0 579 843" fill="none" xmlns="http://www.w3.org/2000/svg">
<path d="M359.623 764.466C361.415 762.475 363.107 760.384 364.799 758.194C403.518 710.203 424.918 646.58 424.918 579.075C424.918 511.569 403.618 448.046 364.799 399.956C352.357 384.523 338.621 371.281 323.79 360.329C415.662 393.683 472.994 483.292 462.145 587.637C454.281 663.208 414.666 727.029 359.623 764.367V764.466ZM440.545 747.042C474.885 705.025 498.077 651.658 504.248 592.118C511.813 519.634 491.408 450.336 446.916 396.969C428.303 374.666 406.305 355.948 381.72 341.311C471.004 368.493 536.498 455.613 536.498 558.564C536.498 637.122 498.276 706.519 440.545 747.042Z" fill="#FFE400"/>
<rect x="32.6039" y="64.0835" width="213.612" height="124.794" fill="white"/>
<rect x="65.2078" y="23.6097" width="140.534" height="124.794" fill="white"/>
<rect x="24.6541" y="180.796" width="213.668" height="147.924" fill="white"/>
<rect x="24.6541" y="312.284" width="213.668" height="147.924" fill="white"/>
<rect x="98.6158" y="361.591" width="213.668" height="147.924" fill="white"/>
<rect x="139.706" y="410.899" width="213.668" height="147.924" fill="white"/>
<rect x="156.142" y="443.771" width="213.668" height="147.924" fill="white"/>
<rect x="172.578" y="484.861" width="213.668" height="147.924" fill="white"/>
<rect x="164.36" y="534.169" width="213.668" height="147.924" fill="white"/>
<rect x="156.142" y="575.259" width="213.668" height="147.924" fill="white"/>
<rect x="90.3979" y="509.515" width="213.668" height="147.924" fill="white"/>
<rect x="24.6541" y="460.207" width="213.668" height="147.924" fill="white"/>
<rect x="24.6541" y="550.605" width="213.668" height="147.924" fill="white"/>
<rect x="41.09" y="583.477" width="213.668" height="147.924" fill="white"/>
<rect x="73.962" y="624.567" width="213.668" height="147.924" fill="white"/>
<rect x="131.488" y="649.221" width="213.668" height="147.924" fill="white"/>
<path d="M579 558.564C579 412.103 466.525 292.624 327.274 290.035L357.035 270.62C366.889 264.248 369.676 251.006 363.206 241.148C356.836 231.291 343.697 228.504 333.843 234.876L279.098 270.62V139.99C279.098 62.826 216.491 0 139.549 0C62.6081 0 0 62.826 0 139.99V660.42C0 710.502 23.789 749.332 74.7514 782.687C80.624 786.471 86.9943 789.856 93.7627 792.544H93.9619L214.699 838.942C216.689 839.838 220.472 840.933 222.064 841.132C230.326 842.029 238.488 842.427 246.65 842.427C275.714 842.427 303.982 837.05 330.459 826.994C468.117 822.513 578.801 703.831 578.801 558.564H579ZM359.623 764.467C361.415 762.475 363.107 760.384 364.799 758.194C403.518 710.203 424.919 646.581 424.919 579.075C424.919 511.569 403.618 448.046 364.799 399.956C352.357 384.523 338.621 371.281 323.79 360.329C415.662 393.683 472.994 483.293 462.145 587.638C454.282 663.208 414.666 727.03 359.623 764.367V764.467ZM98.0429 747.043C48.8722 714.883 42.5019 683.818 42.5019 660.42V139.99C42.5019 86.3236 86.0985 42.6142 139.549 42.6142C193 42.6142 236.597 86.3236 236.597 139.99V298.399L166.225 344.299C156.371 350.671 153.584 363.913 160.054 373.77C164.135 380.043 170.903 383.428 177.871 383.428C181.852 383.428 185.833 382.333 189.417 379.943L211.116 365.705C212.21 365.905 213.405 366.004 214.5 366.004C307.068 366.004 382.317 461.587 382.317 579.075C382.317 696.563 307.068 792.146 214.5 792.146C213.604 792.146 212.808 792.146 212.011 792.345L109.29 752.917C105.11 751.224 101.328 749.333 97.8438 747.043H98.0429ZM440.546 747.043C474.885 705.026 498.077 651.659 504.249 592.118C511.813 519.634 491.408 450.336 446.916 396.969C428.303 374.666 406.305 355.948 381.72 341.312C471.004 368.493 536.498 455.613 536.498 558.564C536.498 637.122 498.276 706.519 440.546 747.043Z" fill="#231815"/>
<path d="M186.132 448.985L184.938 448.488C159.556 436.739 130.591 455.357 130.591 483.435V637.961C130.591 642.044 131.288 646.126 132.482 649.909L220.572 616.156L166.822 679.281C206.935 696.307 251.925 666.835 251.925 622.728V552.235C251.925 507.928 226.245 467.704 186.132 449.085V448.985Z" fill="#231815"/>
</svg>
